<svg width="62" height="62" viewBox="0 0 62 62" fill="none" xmlns="http://www.w3.org/2000/svg">
<path opacity="0.4" d="M30.9224 5.6665C44.9135 5.6665 56.2562 17.0084 56.2563 30.9995C56.2563 44.9907 44.9136 56.3335 30.9224 56.3335C16.9313 56.3333 5.58936 44.9906 5.58936 30.9995C5.58953 17.0086 16.9314 5.66668 30.9224 5.6665Z" fill="currentColor" stroke="currentColor"/>
<path d="M25.4653 22.5459C27.1697 21.5517 29.2249 21.5517 30.9292 22.5459L30.9312 22.5469L38.4233 26.8613C40.1536 27.8568 41.1649 29.6252 41.1177 31.6084V31.6201C41.1177 33.6101 40.1032 35.3572 38.397 36.3535L30.9058 40.668L30.9028 40.6689C30.0516 41.1654 29.1315 41.4023 28.1841 41.4023C27.2614 41.4023 26.3156 41.1649 25.4653 40.6689C23.759 39.6735 22.7427 37.9007 22.7427 35.9346V27.2803C22.7427 25.2895 23.758 23.542 25.4653 22.5459Z" fill="currentColor" stroke="currentColor"/>
</svg>
