<svg width="40" height="40" viewBox="0 0 40 40" fill="none" xmlns="http://www.w3.org/2000/svg">
<circle cx="20" cy="20" r="20" fill="#F5F5F5"/>
<path d="M11.2407 16.8603H15.0964V29H11.2407V16.8603ZM13.1685 15.2028H13.1429C12.8661 15.222 12.5886 15.1811 12.3278 15.0825C12.0669 14.984 11.8284 14.8301 11.6271 14.6304C11.4259 14.4307 11.2663 14.1896 11.1584 13.9222C11.0505 13.6548 10.9966 13.367 11.0002 13.0767C11.0037 12.7865 11.0646 12.5002 11.179 12.2358C11.2934 11.9714 11.4589 11.7347 11.665 11.5405C11.871 11.3462 12.1133 11.1987 12.3765 11.1072C12.6397 11.0158 12.9181 10.9823 13.1942 11.0088C13.4709 10.9876 13.7489 11.0265 14.0105 11.1232C14.2721 11.2198 14.5118 11.3721 14.7144 11.5705C14.9171 11.7688 15.0783 12.0089 15.1879 12.2757C15.2976 12.5424 15.3532 12.83 15.3515 13.1204C15.3497 13.4108 15.2905 13.6976 15.1776 13.9629C15.0647 14.2281 14.9006 14.4661 14.6955 14.6617C14.4905 14.8573 14.2489 15.0064 13.9861 15.0995C13.7233 15.1926 13.445 15.2278 13.1685 15.2028ZM28.9987 29H25.143V22.5074C25.143 20.8741 24.5855 19.7611 23.1907 19.7611C22.7557 19.7633 22.3321 19.9063 21.9779 20.1706C21.6238 20.4349 21.3565 20.8074 21.2127 21.2371C21.1119 21.5539 21.0683 21.8876 21.0843 22.2211V29H17.2311C17.2311 28.996 17.2825 17.9988 17.2311 16.8616H21.0868V18.5822C21.4354 17.9473 21.9435 17.4246 22.5561 17.0707C23.1686 16.7169 23.8621 16.5455 24.5611 16.5753C27.0978 16.5753 29 18.3107 29 22.0396L28.9987 29Z" fill="black"/>
</svg>
