<svg width="40" height="40" viewBox="0 0 40 40" fill="none" xmlns="http://www.w3.org/2000/svg">
<circle cx="20" cy="20" r="20" fill="#F5F5F5"/>
<path d="M28.1143 11.5C28.1393 11.5 28.2046 11.5051 28.2744 11.5254C28.3452 11.546 28.3879 11.5725 28.4082 11.5928L28.416 11.6006C28.4333 11.6174 28.4505 11.6433 28.4658 11.6846C28.4798 11.7222 28.4892 11.7657 28.4951 11.8125C28.4937 11.8504 28.49 11.8862 28.4902 11.915C28.4908 11.9764 28.4931 12.0481 28.4951 12.1152C28.4994 12.2585 28.5029 12.3973 28.4961 12.5117C28.2783 15.265 27.4278 21.4686 26.8516 25.3486L26.624 26.8545C26.5129 27.5716 26.3525 27.9974 26.2031 28.2373C26.0671 28.4557 25.9623 28.4885 25.9248 28.4951C25.6225 28.5229 25.3247 28.4103 24.9512 28.1475C24.7624 28.0146 24.569 27.8544 24.3555 27.6719C24.147 27.4937 23.9163 27.2919 23.6748 27.0996L22.6816 26.3018C22.3773 26.0545 22.0929 25.8214 21.8096 25.5889C21.2427 25.1236 20.6793 24.6608 19.9697 24.0977L19.9688 24.0967C19.5888 23.7961 19.418 23.5688 19.3477 23.4072C19.2873 23.2685 19.29 23.1539 19.3398 23.0176C19.3984 22.8577 19.5219 22.6721 19.7227 22.4287C19.8205 22.3101 19.9277 22.188 20.0459 22.0527C20.1623 21.9194 20.2869 21.7744 20.4111 21.6221C20.5445 21.4631 21.6434 20.2537 22.7549 18.9902C23.308 18.3614 23.8591 17.7247 24.2783 17.2178C24.4873 16.965 24.6682 16.7395 24.8008 16.5605C24.8666 16.4717 24.9258 16.3879 24.9717 16.3145C24.9945 16.2779 25.0179 16.238 25.0381 16.1973C25.0466 16.1802 25.0578 16.1552 25.0693 16.125L25.0996 16.0205L25.1016 16.0127C25.1252 15.8825 25.1216 15.7474 25.0918 15.6182C25.062 15.4892 25.0053 15.3638 24.9199 15.2549L24.9014 15.2314L24.8809 15.21L24.8154 15.1523C24.6616 15.0306 24.4912 14.9981 24.3584 14.998C24.2998 14.998 24.2359 15.0058 24.1855 15.0137L24.0928 15.0303L24.0703 15.0342L24.0479 15.04C23.9838 15.0572 23.9342 15.0841 23.9199 15.0918C23.8966 15.1044 23.8749 15.1182 23.8564 15.1299C23.819 15.1537 23.7749 15.1837 23.7285 15.2168C23.6348 15.2837 23.5087 15.3783 23.3525 15.498C23.0387 15.7387 22.5889 16.0919 22.0049 16.5576C21.4204 17.0237 20.6996 17.6044 19.8408 18.2979L16.8516 20.7188C16.2175 21.2344 15.7394 21.4203 15.3916 21.4072H15.3896C15.1606 21.3996 14.7818 21.3174 14.3232 21.1787C13.8777 21.0439 13.3979 20.8692 12.9844 20.7031L12.9766 20.7002L12.25 20.4248C12.0458 20.3445 11.8771 20.2705 11.7383 20.1885C11.6091 20.1121 11.5507 20.0528 11.5254 20.0146C11.517 20.002 11.5095 19.9884 11.5049 19.9697L11.502 19.8936V19.8916C11.5022 19.8894 11.5042 19.8722 11.5254 19.8379C11.5492 19.7994 11.5931 19.745 11.6699 19.6768C11.7876 19.5723 11.9598 19.4556 12.1953 19.3271L12.4521 19.1943L12.459 19.1914L12.4648 19.1885C16.1047 17.2813 18.8243 15.8602 20.6338 14.9326L22.1406 14.1699L22.1426 14.1689C24.4542 13.0069 25.8335 12.3322 26.7119 11.9482C27.6015 11.5595 27.9121 11.5001 28.1143 11.5Z" fill="black" stroke="black"/>
</svg>
